# xmcd
#
# Track frame offsets:
#	150
#	12636
#	27149
#	39368
#	52414
#	70388
#	83419
#	102470
#	113417
#	129026
#	143824
#	159761
#	172528
#	185664
#	201256
#	214175
#	227914
#	241529
#	256925
#	271094
#	285230
#	299714
#	315729
#
# Disc length: 4432 seconds
#
# Revision: 1
# Processed by: cddbd v1.5.2PL0 Copyright (c) Steve Scherf et al.
# Submitted via: audiograbber 1.83.01
#
DISCID=39114e17
DTITLE=Various Artist - Masterpieces Of Modern Soul, Vol. 3
DYEAR=2011
DGENRE=Soul
TTITLE0=7 Days Unlimited - Trying
TTITLE1=Art Gentry - This Is My Chance
TTITLE2=Candi Staton - One More Hurt
TTITLE3=The Hesitations - Go Away
TTITLE4=Marshall McQueen Jr. - Any Fool Can Feel It
TTITLE5=Melvin Sparks feat. Jimmy Scott - I've Got To Have You
TTITLE6=Nightchill - I Don't Play Games
TTITLE7=Gloria Lucas - You Won't Be True
TTITLE8=Rose Batiste - The Feeling Is Gone
TTITLE9=Tommy Tate - If You Got To Love Somebody
TTITLE10=Eddie Billups - Shake Off That Dream
TTITLE11=The Crusaders - You Pay For Love
TTITLE12=James Carpenter - (Marriage Is Only) A State Of Mind
TTITLE13=Darondo - Didn't I
TTITLE14=Barbara Brown - Pity A Fool
TTITLE15=Pat Livingston - Sugar Love
TTITLE16=Betty Gouché - What More Can I Ask For
TTITLE17=Charles Russell - It Ain't Easy
TTITLE18=Jesse Davis - I Never Could Have Made It
TTITLE19=Tommy Bush - Stop And Think
TTITLE20=Eddie Hill - I Am So Thankful
TTITLE21=The Sweeteens - So Much Love To This
TTITLE22=Loleatta Holloway - This Man's Arms
EXTD=
EXTT0=
EXTT1=
EXTT2=
EXTT3=
EXTT4=
EXTT5=
EXTT6=
EXTT7=
EXTT8=
EXTT9=
EXTT10=
EXTT11=
EXTT12=
EXTT13=
EXTT14=
EXTT15=
EXTT16=
EXTT17=
EXTT18=
EXTT19=
EXTT20=
EXTT21=
EXTT22=
PLAYORDER=
